<?xml version="1.0" encoding="utf-8"?>
<!-- Generator: Adobe Illustrator 24.0.2, SVG Export Plug-In . SVG Version: 6.00 Build 0)  -->
<svg version="1.1" id="Capa_1" xmlns="http://www.w3.org/2000/svg" xmlns:xlink="http://www.w3.org/1999/xlink" x="0px" y="0px"
	 viewBox="0 0 30 30" style="enable-background:new 0 0 30 30;" xml:space="preserve">
<g>
	<g>
		<path d="M0.61,1.74C0.89,1.46,1.2,1.38,1.59,1.46C2.1,1.58,2.63,1.63,3.14,1.74c1.58,0.34,2.73,1.56,3.03,3.2
			c0.1,0.57,0.26,1.14,0.3,1.72c0.04,0.61,0.34,0.71,0.88,0.71c2.24-0.02,4.47-0.01,6.71-0.01c4.78,0,9.55,0,14.33,0
			c1.08,0,1.32,0.32,1.01,1.34c-0.92,3.06-1.84,6.11-2.77,9.17c-0.52,1.7-1.64,2.54-3.41,2.54c-4.27,0-8.54,0-12.8,0
			c-1.87,0-3.09-1-3.43-2.84C6.27,13.57,5.56,9.58,4.87,5.58C4.59,3.99,3.92,3.3,2.33,3.01c-0.58-0.1-1.21-0.08-1.71-0.48
			C0.61,2.27,0.61,2,0.61,1.74z M17.36,8.76c-3.27,0-6.54,0-9.81,0c-0.68,0-0.7,0.01-0.58,0.69c0.45,2.59,0.91,5.17,1.38,7.76
			c0.23,1.27,0.85,1.77,2.14,1.77c4.23,0,8.46,0,12.68,0c1.23,0,1.78-0.42,2.13-1.59c0.8-2.66,1.61-5.32,2.42-7.98
			c0.19-0.64,0.19-0.65-0.5-0.65C23.94,8.76,20.65,8.76,17.36,8.76z"/>
		<path d="M23.44,21.79c1.9,0.01,3.48,1.58,3.49,3.48c0.01,1.91-1.59,3.51-3.51,3.53c-1.94,0.01-3.56-1.61-3.54-3.55
			C19.9,23.31,21.48,21.78,23.44,21.79z M23.44,23.21c-1.18-0.01-2.14,0.92-2.14,2.07c0,1.17,0.89,2.06,2.07,2.07
			c1.2,0.01,2.14-0.89,2.14-2.06C25.52,24.16,24.57,23.22,23.44,23.21z"/>
		<path d="M10.08,28.79c-1.94-0.05-3.51-1.63-3.48-3.5c0.03-2.02,1.65-3.54,3.71-3.49c1.88,0.05,3.36,1.67,3.32,3.64
			C13.58,27.3,11.96,28.83,10.08,28.79z M10.15,23.21C8.98,23.2,8,24.14,8,25.28c0,1.12,0.95,2.06,2.09,2.08
			c1.21,0.01,2.11-0.87,2.12-2.07C12.21,24.11,11.33,23.22,10.15,23.21z"/>
	</g>
</g>
</svg>
