<?xml version="1.0" encoding="utf-8"?>
<!-- Generator: Adobe Illustrator 24.0.2, SVG Export Plug-In . SVG Version: 6.00 Build 0)  -->
<svg version="1.1" id="Capa_1" xmlns="http://www.w3.org/2000/svg" xmlns:xlink="http://www.w3.org/1999/xlink" x="0px" y="0px"
	 viewBox="0 0 30 30" style="enable-background:new 0 0 30 30;" xml:space="preserve">
<g>
	<g>
		<path d="M0.61,5.58c0.56-1.37,1.27-1.84,2.76-1.84c5.19,0,10.38,0.03,15.57-0.02c1.45-0.01,2.89,0.77,2.89,2.85
			c0,0.66,0.02,1.32-0.01,1.97c-0.02,0.46,0.13,0.63,0.61,0.62c1.49-0.02,2.97-0.01,4.46-0.01c1.64,0,2.64,1,2.64,2.63
			c0,2.97,0,5.94,0,8.91c0,1.64-0.92,2.62-2.58,2.72c-0.15,0.01-0.3,0.02-0.45,0c-0.43-0.04-0.62,0.12-0.59,0.57
			c0.03,0.52,0.01,1.05,0,1.58c0,0.32-0.09,0.6-0.41,0.74c-0.33,0.15-0.58-0.03-0.8-0.26c-0.72-0.74-1.46-1.47-2.16-2.23
			c-0.28-0.3-0.58-0.42-0.99-0.42c-3.42,0.01-6.84,0.01-10.27,0.01c-0.55,0-1.09-0.05-1.59-0.29c-1.07-0.52-1.4-1.46-1.43-2.56
			c-0.02-0.68,0-1.35-0.01-2.03c0-0.18,0.06-0.41-0.17-0.49c-0.22-0.07-0.33,0.13-0.46,0.26c-0.71,0.73-1.4,1.47-2.11,2.2
			c-0.25,0.26-0.49,0.57-0.91,0.39c-0.42-0.18-0.43-0.57-0.43-0.96c0-0.49-0.01-0.98,0-1.47C4.2,18.13,4.06,17.98,3.72,18
			c-0.45,0.02-0.9-0.03-1.34-0.13c-0.9-0.22-1.42-0.86-1.77-1.68C0.61,12.65,0.61,9.11,0.61,5.58z M24.5,24.07
			c0.05-0.02,0.1-0.04,0.15-0.07c0-0.34-0.02-0.67,0-1.01c0.04-0.62,0.27-0.83,0.89-0.85c0.39-0.01,0.79,0,1.18,0
			c1.14-0.01,1.61-0.46,1.61-1.61c0-2.84,0-5.68,0-8.52c0-1.13-0.49-1.65-1.6-1.65c-5.19-0.01-10.38-0.01-15.57,0
			c-1.12,0-1.6,0.51-1.6,1.64c0,2.84,0,5.68,0,8.52c0,1.2,0.42,1.62,1.63,1.62c3.55,0,7.11,0.01,10.66-0.01
			c0.58,0,1.01,0.17,1.38,0.6C23.64,23.19,24.08,23.62,24.5,24.07z M5.46,18.6c0.05,0.01,0.11,0.02,0.16,0.04
			c0.46-0.49,0.93-0.98,1.39-1.47c0.21-0.22,0.43-0.45,0.76-0.44c0.45,0.02,0.52-0.23,0.51-0.61c-0.01-1.39-0.02-2.78,0-4.17
			c0.03-1.84,1.04-2.8,2.86-2.8c2.93,0,5.87-0.01,8.8,0.01c0.46,0,0.64-0.14,0.61-0.61c-0.03-0.68-0.01-1.35-0.01-2.03
			c-0.01-1.07-0.48-1.58-1.53-1.58c-5.23-0.01-10.45-0.01-15.68,0c-1.06,0-1.55,0.52-1.56,1.57c-0.01,1.3,0,2.59,0,3.89
			c0,1.6-0.01,3.2,0,4.79c0.01,1.02,0.49,1.5,1.48,1.51c0.45,0.01,0.9,0.01,1.35,0c0.54-0.01,0.81,0.26,0.84,0.77
			C5.48,17.86,5.46,18.23,5.46,18.6z"/>
	</g>
</g>
</svg>
