<?xml version="1.0" encoding="utf-8"?>
<!-- Generator: Adobe Illustrator 24.0.2, SVG Export Plug-In . SVG Version: 6.00 Build 0)  -->
<svg version="1.1" id="Capa_1" xmlns="http://www.w3.org/2000/svg" xmlns:xlink="http://www.w3.org/1999/xlink" x="0px" y="0px"
	 viewBox="0 0 44 44" style="enable-background:new 0 0 44 44;" xml:space="preserve">
<style type="text/css">
	.st0{fill:#0B6A83;}
</style>
<g>
	<path class="st0" d="M13.8,7c1,0.4,1.7-0.2,2.5-1c3.5-3.7,8-3.7,11.5,0c0.7,0.8,1.4,1.1,2.6,1c4.5-0.4,8.5,3.6,8.2,8.1
		c-0.1,1.2,0.2,1.9,1,2.8c3.6,3.5,3.6,8.1-0.1,11.6c-0.7,0.7-1.1,1.3-1,2.4c0.4,4.8-3.5,8.7-8.2,8.3c-1.1-0.1-1.7,0.2-2.4,1
		c-3.6,3.7-8.1,3.7-11.6,0c-0.7-0.7-1.4-1-2.4-0.9c-4.6,0.4-8.6-3.5-8.2-8.2c0.1-1.1-0.2-1.8-1-2.6C1,26,1,21.4,4.6,17.9
		c0.9-0.8,1.1-1.6,1-2.8C5.2,10.6,9.2,6.7,13.8,7z M36.4,15.1c0-3.9-3-6.5-6.7-5.8c-1.3,0.3-2.1,0.1-2.9-1.1c-2.4-3.7-7-3.6-9.5,0.1
		c-0.7,1-1.3,1.4-2.6,1.1c-4.5-0.9-7.7,2.3-6.8,6.8c0.2,1.2,0,1.9-1,2.7c-3.9,2.4-3.9,7-0.2,9.6c1,0.7,1.3,1.4,1.1,2.6
		c-0.9,4.6,2.3,7.8,6.7,6.9c1.2-0.2,1.9,0,2.6,1c2.5,3.8,7.1,3.8,9.6,0c0.7-1,1.4-1.3,2.6-1.1c4.6,0.9,7.7-2.4,6.7-7
		c-0.2-1.1,0-1.7,0.9-2.3c4-2.7,4-7.1,0.1-9.9c-1-0.7-1.3-1.4-1-2.5C36.3,15.8,36.4,15.3,36.4,15.1z"/>
	<path class="st0" d="M17.1,22.1c-1.9,0-3.6-1.7-3.5-3.6c0-1.8,1.7-3.4,3.5-3.4c1.9,0,3.5,1.7,3.5,3.6
		C20.5,20.4,18.9,22.1,17.1,22.1z"/>
	<path class="st0" d="M30.5,28.6c0,1.8-1.6,3.5-3.4,3.5c-1.9,0-3.6-1.6-3.6-3.5c0-1.8,1.6-3.5,3.4-3.5
		C28.9,25.1,30.5,26.7,30.5,28.6z"/>
	<path class="st0" d="M28.6,16c0.7,0.1,1.1,0.5,0.9,1.3c-0.1,0.3-0.4,0.6-0.6,0.9c-4.1,4.1-8.2,8.2-12.3,12.4
		c-0.2,0.2-0.4,0.3-0.6,0.5c-0.4,0.3-0.9,0.4-1.3,0c-0.4-0.4-0.3-0.9,0-1.3c0.2-0.3,0.5-0.6,0.8-0.8c3.9-4,7.8-7.9,11.8-11.8
		C27.7,16.6,28,16.1,28.6,16z"/>
</g>
</svg>
