<?xml version="1.0" encoding="utf-8"?>
<!-- Generator: Adobe Illustrator 24.0.2, SVG Export Plug-In . SVG Version: 6.00 Build 0)  -->
<svg version="1.1" id="Capa_1" xmlns="http://www.w3.org/2000/svg" xmlns:xlink="http://www.w3.org/1999/xlink" x="0px" y="0px"
	 viewBox="0 0 44 8.17" style="enable-background:new 0 0 44 8.17;" xml:space="preserve">
<style type="text/css">
	.st0{fill:#F7A53C;}
</style>
<g>
	<path class="st0" d="M43.94,3.75C43.66,4,43.41,4.27,43.11,4.49c-0.66,0.49-0.8,1.12-0.58,1.89c0.07,0.24,0.09,0.5,0.1,0.76
		c0.02,0.84-0.35,1.08-1.12,0.74c-0.1-0.05-0.21-0.09-0.3-0.16c-0.91-0.7-1.79-0.68-2.7,0.01c-0.3,0.23-0.68,0.47-1.1,0.18
		c-0.45-0.3-0.39-0.73-0.24-1.15c0.39-1.11,0.08-1.97-0.87-2.65c-0.31-0.22-0.65-0.52-0.5-0.99c0.16-0.51,0.65-0.59,1.05-0.58
		c1.22,0.04,1.87-0.59,2.24-1.66c0.13-0.37,0.34-0.77,0.83-0.74c0.43,0.02,0.64,0.38,0.76,0.73c0.37,1.14,1.09,1.73,2.32,1.68
		c0.32-0.01,0.67,0.12,0.95,0.33C43.94,3.18,43.94,3.46,43.94,3.75z"/>
	<path class="st0" d="M1.41,7.1c0.01-0.14-0.01-0.3,0.04-0.42C1.86,5.6,1.46,4.82,0.6,4.16C0.27,3.9-0.07,3.57,0.12,3.07
		c0.17-0.45,0.64-0.53,1-0.52C2.34,2.59,3,1.97,3.37,0.89C3.5,0.51,3.72,0.13,4.21,0.15c0.44,0.02,0.64,0.38,0.75,0.73
		c0.37,1.15,1.1,1.71,2.33,1.67c0.37-0.01,0.82,0.09,0.97,0.57C8.39,3.56,8.1,3.86,7.81,4.06C6.74,4.8,6.52,5.76,6.92,6.94
		C7.04,7.28,7,7.62,6.7,7.88C6.38,8.14,6.02,8.07,5.75,7.85C4.69,7.01,3.68,7.11,2.58,7.83C1.83,8.32,1.39,7.99,1.41,7.1z"/>
	<path class="st0" d="M28.15,7.05c0.7-1.31,0.03-2.33-1.09-3.28c-0.48-0.41-0.28-1.04,0.32-1.07c1.53-0.1,2.5-0.74,3.02-2.21
		c0.18-0.52,0.73-0.46,1.11-0.02c0.04,0.04,0.08,0.09,0.1,0.14c0.41,1.36,1.31,1.97,2.74,2.05c0.8,0.05,0.92,0.63,0.4,1.28
		c-0.04,0.04-0.07,0.09-0.12,0.13c-1.06,0.7-1.27,1.62-0.96,2.85c0.25,1.01-0.35,1.44-1.18,0.89c-1.09-0.71-2.03-0.73-3.11,0.02
		C28.7,8.28,28.16,7.96,28.15,7.05z"/>
	<path class="st0" d="M19.24,7.06c0-0.03,0-0.06,0.01-0.08c0.5-1.3,0.07-2.24-1-3.07c-0.65-0.5-0.45-1.04,0.35-1.28
		c0.11-0.03,0.22-0.09,0.33-0.08c1.19,0.06,1.9-0.52,2.27-1.63c0.12-0.37,0.34-0.76,0.82-0.76c0.48,0,0.7,0.39,0.82,0.76
		c0.37,1.1,1.07,1.67,2.27,1.64c0.37-0.01,0.83,0.08,0.99,0.53c0.18,0.51-0.21,0.82-0.54,1.06c-0.93,0.67-1.19,1.49-0.82,2.57
		c0.14,0.39,0.2,0.86-0.22,1.18c-0.41,0.31-0.8,0.07-1.1-0.16c-1.02-0.79-1.94-0.56-2.95,0.07C19.68,8.3,19.19,7.95,19.24,7.06z"/>
	<path class="st0" d="M10.33,6.91c0.66-1.2-0.03-2.13-1.04-3.03C8.71,3.37,8.91,2.86,9.65,2.63c0.16-0.05,0.33-0.12,0.5-0.11
		c1.1,0.05,1.75-0.49,2.08-1.5c0.07-0.21,0.19-0.42,0.34-0.59c0.35-0.41,0.74-0.41,1.07,0.02c0.16,0.2,0.29,0.43,0.37,0.67
		c0.3,0.97,0.94,1.43,1.96,1.4c0.27-0.01,0.57,0.08,0.82,0.19c0.43,0.2,0.57,0.54,0.29,0.97c-0.06,0.09-0.13,0.2-0.22,0.26
		c-1.12,0.77-1.48,1.77-0.99,3.07c0.12,0.33,0.03,0.68-0.3,0.91c-0.31,0.22-0.63,0.12-0.87-0.07c-1.06-0.81-2.06-0.77-3.17-0.03
		C10.76,8.32,10.32,7.99,10.33,6.91z"/>
</g>
</svg>
