<?xml version="1.0" encoding="utf-8"?>
<!-- Generator: Adobe Illustrator 24.0.2, SVG Export Plug-In . SVG Version: 6.00 Build 0)  -->
<svg version="1.1" id="Capa_1" xmlns="http://www.w3.org/2000/svg" xmlns:xlink="http://www.w3.org/1999/xlink" x="0px" y="0px"
	 viewBox="0 0 16 16" style="enable-background:new 0 0 16 16;" xml:space="preserve">
<g>
	<path d="M11.06,0c0.32,0.03,0.63,0.06,0.95,0.08c0.12,0.01,0.16,0.05,0.16,0.17c0,0.75,0,1.51,0,2.26c0,0.11-0.04,0.16-0.15,0.15
		c-0.4,0-0.8-0.01-1.2,0c-0.23,0-0.47,0.01-0.7,0.06c-0.48,0.09-0.77,0.4-0.82,0.89C9.22,4.31,9.28,5.01,9.26,5.71
		c0,0.13,0.08,0.12,0.17,0.12c0.8,0,1.59,0,2.39,0c0.05,0,0.09,0,0.14,0c0.09,0,0.12,0.04,0.11,0.13c-0.08,0.58-0.15,1.15-0.23,1.73
		c-0.04,0.28-0.08,0.56-0.11,0.83c-0.01,0.16-0.07,0.2-0.22,0.2c-0.68-0.01-1.35,0-2.03,0c-0.22,0-0.22,0-0.22,0.23
		c0,2.27,0,4.54,0,6.81c0,0.25,0,0.25-0.25,0.25c-0.84,0-1.69,0-2.53,0c-0.21,0-0.21,0-0.21-0.21c0-2.28,0-4.56,0-6.84
		c0-0.23,0-0.23-0.23-0.23c-0.67,0-1.33,0-2,0c-0.21,0-0.21,0-0.21-0.2c0-0.83,0-1.65,0-2.48c0-0.16,0.04-0.21,0.2-0.21
		c0.69,0.01,1.37,0,2.06,0.01c0.15,0,0.19-0.05,0.18-0.19c-0.01-0.61-0.01-1.22,0-1.83c0.01-0.59,0.07-1.17,0.29-1.73
		c0.46-1.17,1.34-1.81,2.56-2.04C9.23,0.03,9.34,0.02,9.44,0C9.98,0,10.52,0,11.06,0z"/>
</g>
</svg>
