<?xml version="1.0" encoding="utf-8"?>
<!-- Generator: Adobe Illustrator 24.0.2, SVG Export Plug-In . SVG Version: 6.00 Build 0)  -->
<svg version="1.1" id="Capa_1" xmlns="http://www.w3.org/2000/svg" xmlns:xlink="http://www.w3.org/1999/xlink" x="0px" y="0px"
	 viewBox="0 0 17.7 30" style="enable-background:new 0 0 17.7 30;" xml:space="preserve">
<style type="text/css">
	.st0{fill:#FFFFFF;}
</style>
<g>
	<path class="st0" d="M16.82,0c1.1,0.79,1.11,1.62,0.06,2.57c-4.36,3.97-8.7,7.94-13.05,11.92c-0.55,0.5-0.55,0.52,0,1.02
		c4.35,3.97,8.7,7.95,13.05,11.92c1.05,0.96,1.04,1.79-0.06,2.57c-0.35,0-0.7,0-1.05,0C10.73,25.41,5.7,20.83,0.66,16.24
		c-0.83-0.76-0.83-1.72,0-2.48c4.81-4.4,9.63-8.79,14.44-13.19c0.22-0.2,0.44-0.38,0.66-0.57C16.12,0,16.47,0,16.82,0z"/>
</g>
</svg>
