<?xml version="1.0" encoding="utf-8"?>
<!-- Generator: Adobe Illustrator 24.0.2, SVG Export Plug-In . SVG Version: 6.00 Build 0)  -->
<svg version="1.1" id="Capa_1" xmlns="http://www.w3.org/2000/svg" xmlns:xlink="http://www.w3.org/1999/xlink" x="0px" y="0px"
	 viewBox="0 0 17.7 30" style="enable-background:new 0 0 17.7 30;" xml:space="preserve">
<style type="text/css">
	.st0{fill:#FFFFFF;}
</style>
<g>
	<path class="st0" d="M0.88,30c-1.1-0.79-1.11-1.62-0.06-2.57c4.36-3.97,8.7-7.94,13.05-11.92c0.55-0.5,0.55-0.52,0-1.02
		C9.52,10.52,5.17,6.54,0.82,2.57C-0.23,1.62-0.23,0.79,0.88,0c0.35,0,0.7,0,1.05,0C6.97,4.59,12,9.17,17.04,13.76
		c0.83,0.76,0.83,1.72,0,2.48c-4.81,4.4-9.63,8.79-14.44,13.19c-0.22,0.2-0.44,0.38-0.66,0.57C1.58,30,1.23,30,0.88,30z"/>
</g>
</svg>
