<?xml version="1.0" encoding="utf-8"?>
<!-- Generator: Adobe Illustrator 24.0.2, SVG Export Plug-In . SVG Version: 6.00 Build 0)  -->
<svg version="1.1" id="Capa_1" xmlns="http://www.w3.org/2000/svg" xmlns:xlink="http://www.w3.org/1999/xlink" x="0px" y="0px"
	 viewBox="0 0 44 44" style="enable-background:new 0 0 44 44;" xml:space="preserve">
<style type="text/css">
	.st0{fill:#0B6A83;}
</style>
<g>
	<path class="st0" d="M15.74,20.24c0-2.59-0.02-5.18,0.01-7.77c0.02-2.15,0.88-3.24,3.03-3.47c2.95-0.31,5.93-0.31,8.89,0
		c2.07,0.22,2.99,1.38,3.06,3.5c0.05,1.4,0.05,2.81,0.01,4.21c-0.03,1.02,0.37,1.42,1.42,1.46c3.23,0.14,4.05,1.03,4.06,4.25
		c0.01,3.45,0.02,6.91,0,10.36c-0.02,2.81-1.15,3.93-3.94,3.95c-3.51,0.02-7.02,0-10.53,0c-0.16,0-0.32,0-0.49-0.01
		c-0.83-0.04-1.79-0.06-1.76-1.18c0.03-1.1,1.02-1.12,1.83-1.13c2.81-0.03,5.61,0.01,8.42-0.02c4.8-0.05,4.13,0.65,4.18-4.23
		c0.03-2.64-0.04-5.29,0.02-7.93c0.03-1.34-0.5-1.81-1.82-1.79c-4.16,0.06-8.31,0.06-12.47,0.03c-1.18-0.01-1.66,0.45-1.63,1.63
		c0.05,1.78,0.01,3.56,0.01,5.34c0,0.49,0,0.97-0.06,1.45c-0.08,0.69-0.35,1.3-1.18,1.28c-0.86-0.02-1.03-0.68-1.03-1.37
		c-0.01-2.86-0.01-5.72-0.01-8.58C15.75,20.24,15.75,20.24,15.74,20.24z M23.18,18.15C23.18,18.15,23.18,18.14,23.18,18.15
		c1.35-0.01,2.69-0.02,4.04,0c0.81,0.01,1.19-0.37,1.19-1.17c0-1.45-0.01-2.91,0-4.36c0.01-1.02-0.48-1.45-1.49-1.45
		c-2.42,0.02-4.85,0.03-7.27-0.01c-1.19-0.02-1.64,0.54-1.62,1.67c0.03,1.29,0.03,2.58,0,3.88c-0.02,1.01,0.38,1.49,1.43,1.45
		C20.7,18.12,21.94,18.15,23.18,18.15z"/>
	<path class="st0" d="M14.24,16.65c0,4.37,0.03,8.75-0.02,13.12c-0.01,1.12,0.24,1.93,1.22,2.6c1.3,0.89,2.12,2.23,2.29,3.77
		c0.18,1.57,0.97,1.92,2.38,1.89c3.56-0.07,7.13,0.13,10.69-0.06c3.51-0.19,5.06,2.44,7.08,4.45c0.34,0.34,0.26,0.82-0.13,1.15
		c-0.47,0.41-1.04,0.41-1.49,0.04c-0.79-0.65-1.55-1.35-2.25-2.09c-0.79-0.84-1.69-1.22-2.86-1.21c-4.1,0.05-8.21,0.04-12.31,0
		c-1-0.01-1.69,0.29-2.34,1.09c-2.02,2.47-5.01,3.22-7.7,2.06c-2.69-1.17-4.35-3.99-3.99-6.77c0.38-2.93,2.65-5.32,5.76-5.74
		c1.28-0.18,1.59-0.68,1.59-1.86c-0.03-8.31-0.04-16.63,0-24.94c0.01-1.55-0.61-2.17-2.12-2.06C9.28,2.13,8.52,2.1,7.77,2.03
		C7.18,1.97,6.74,1.63,6.74,0.98C6.73,0.29,7.2,0.04,7.8,0.03c1.35-0.01,2.71-0.09,4.04,0.04c1.56,0.15,2.36,1.26,2.38,3.14
		C14.25,7.69,14.23,12.17,14.24,16.65C14.24,16.65,14.24,16.65,14.24,16.65z M7.07,37.42c-0.02,2.42,1.88,4.38,4.24,4.37
		c2.43-0.01,4.42-2.04,4.39-4.47c-0.03-2.29-1.92-4.11-4.31-4.16C8.96,33.11,7.09,34.96,7.07,37.42z"/>
	<path class="st0" d="M29.68,33.2c-0.69-0.07-1.39-0.08-2.07-0.22c-0.52-0.1-0.83-0.49-0.8-1.05c0.03-0.64,0.45-1,1.04-1.03
		c1.12-0.06,2.25-0.06,3.37-0.02c0.64,0.02,1.17,0.35,1.18,1.07c0.02,0.82-0.56,1.1-1.27,1.16c-0.48,0.04-0.96,0.01-1.45,0.01
		C29.68,33.14,29.68,33.17,29.68,33.2z"/>
</g>
</svg>
