<?xml version="1.0" encoding="utf-8"?>
<!-- Generator: Adobe Illustrator 24.0.2, SVG Export Plug-In . SVG Version: 6.00 Build 0)  -->
<svg version="1.1" id="Capa_1" xmlns="http://www.w3.org/2000/svg" xmlns:xlink="http://www.w3.org/1999/xlink" x="0px" y="0px"
	 viewBox="0 0 16 16" style="enable-background:new 0 0 16 16;" xml:space="preserve">
<g>
	<g>
		<path d="M0.2,12.52c0-3.03,0-6.06,0-9.08c0.52-1.69,1.62-2.8,3.31-3.31c3.03,0,6.06,0,9.08,0c0.09,0.04,0.19,0.08,0.28,0.12
			c2.04,0.75,3.08,2.22,3.08,4.37c0,2.31,0.01,4.62,0,6.93c-0.01,2.47-1.88,4.34-4.35,4.35c-2.37,0.01-4.74,0-7.11,0
			c-0.35,0-0.69-0.01-1.03-0.1C1.75,15.33,0.74,14.17,0.2,12.52z M12.3,7.97c-0.16-2.48-1.86-4.21-4.25-4.19
			C5.57,3.79,3.84,5.6,3.86,7.99c0.01,2.48,1.82,4.21,4.22,4.19C10.55,12.17,12.16,10.36,12.3,7.97z M13.8,3.4
			c-0.01-0.7-0.5-1.17-1.21-1.15c-0.66,0.01-1.16,0.52-1.16,1.16c0,0.64,0.56,1.21,1.21,1.21C13.3,4.61,13.81,4.08,13.8,3.4z"/>
		<path d="M11.53,8c-0.02,1.88-1.66,3.49-3.52,3.45c-1.86-0.04-3.43-1.64-3.42-3.49c0.02-1.88,1.66-3.49,3.52-3.45
			C9.97,4.55,11.55,6.15,11.53,8z"/>
	</g>
</g>
</svg>
