<?xml version="1.0" encoding="utf-8"?>
<!-- Generator: Adobe Illustrator 24.0.2, SVG Export Plug-In . SVG Version: 6.00 Build 0)  -->
<svg version="1.1" id="Capa_1" xmlns="http://www.w3.org/2000/svg" xmlns:xlink="http://www.w3.org/1999/xlink" x="0px" y="0px"
	 viewBox="0 0 20 20" style="enable-background:new 0 0 20 20;" xml:space="preserve">
<style type="text/css">
	.st0{fill:#F9F7F7;}
</style>
<g>
	<g>
		<path class="st0" d="M8,0.1c6.4,0,10.4,6.1,7.8,11.7c-0.7,1.4-0.5,2.3,0.7,3.3c0.9,0.8,1.7,1.6,2.5,2.5c0.5,0.5,1.4,1.3,0.5,2.1
			c-0.8,0.8-1.4-0.1-2.1-0.7c-0.8-0.8-1.7-1.6-2.5-2.5c-0.9-1-1.7-1.3-3.1-0.7c-4.2,2.1-9,0.3-11.1-3.8C-1.1,7.9,0.6,2.9,4.6,0.8
			C5.8,0.3,7-0.1,8,0.1z M8.3,2C5.2,2,2,5,2,8.3s3,6.4,6.4,6.4c3.3,0,6.3-3,6.3-6.3C14.8,5.1,11.7,2,8.3,2z"/>
	</g>
</g>
</svg>
