<?xml version="1.0" encoding="utf-8"?>
<!-- Generator: Adobe Illustrator 24.0.2, SVG Export Plug-In . SVG Version: 6.00 Build 0)  -->
<svg version="1.1" id="Capa_1" xmlns="http://www.w3.org/2000/svg" xmlns:xlink="http://www.w3.org/1999/xlink" x="0px" y="0px"
	 viewBox="0 0 16 16" style="enable-background:new 0 0 16 16;" xml:space="preserve">
<g>
	<g>
		<path d="M0.22,12.98c0-2.53,0-5.06,0-7.59C0.51,5.4,0.7,5.6,0.92,5.74c1.82,1.21,3.63,2.42,5.45,3.63c1.36,0.9,2.04,0.9,3.42-0.01
			c1.83-1.22,3.66-2.44,5.5-3.66c0.16-0.11,0.33-0.32,0.54-0.22c0.22,0.1,0.12,0.36,0.12,0.56c0.01,2.02,0.01,4.04,0,6.06
			c0,1.31-0.5,1.8-1.82,1.8c-4.04,0-8.08-0.01-12.11,0.01C1.22,13.9,0.62,13.67,0.22,12.98z"/>
		<path d="M0.22,2.94c0.39-0.66,0.95-0.92,1.73-0.91c4.12,0.02,8.23,0.01,12.35,0.01c1.09,0,1.72,0.66,1.64,1.66
			c-0.04,0.46-0.27,0.81-0.64,1.06C13.18,6.18,11.07,7.6,8.94,9c-0.58,0.38-1.2,0.37-1.79-0.02c-2.11-1.39-4.21-2.8-6.31-4.2
			C0.57,4.6,0.36,4.35,0.22,4.04C0.22,3.67,0.22,3.31,0.22,2.94z"/>
	</g>
</g>
</svg>
