<?xml version="1.0" encoding="utf-8"?>
<!-- Generator: Adobe Illustrator 24.0.2, SVG Export Plug-In . SVG Version: 6.00 Build 0)  -->
<svg version="1.1" id="Capa_1" xmlns="http://www.w3.org/2000/svg" xmlns:xlink="http://www.w3.org/1999/xlink" x="0px" y="0px"
	 viewBox="0 0 16 16" style="enable-background:new 0 0 16 16;" xml:space="preserve">
<g>
	<g>
		<path d="M9.07,15.94c-0.63,0-1.27,0-1.9,0c-0.35-0.07-0.7-0.15-1.05-0.22c-0.26-0.05-0.3-0.15-0.16-0.37
			c0.32-0.5,0.56-1.04,0.7-1.62c0.14-0.57,0.29-1.13,0.43-1.69c0.02-0.08,0.02-0.18,0.11-0.21c0.1-0.03,0.13,0.08,0.18,0.14
			c0.49,0.53,1.11,0.78,1.81,0.75c1.56-0.07,2.67-0.86,3.4-2.21c0.48-0.89,0.67-1.85,0.71-2.86c0.05-1.15-0.27-2.17-1.02-3.02
			c-1.13-1.27-2.58-1.77-4.26-1.68C6.33,3.03,4.88,3.63,3.83,5c-1.04,1.37-1.3,2.88-0.65,4.5c0.22,0.54,0.6,0.95,1.13,1.2
			c0.14,0.06,0.27,0.11,0.38-0.05c0.22-0.31,0.24-0.9,0.02-1.22C4.53,9.16,4.38,8.87,4.33,8.54C4.11,7.08,4.58,5.86,5.74,4.97
			c1.26-0.98,2.69-1,4.12-0.44c0.71,0.27,1.22,0.83,1.42,1.56c0.45,1.63,0.15,3.16-0.8,4.55c-0.27,0.39-0.65,0.65-1.12,0.76
			c-1.2,0.26-1.98-0.65-1.65-1.67c0.03-0.09,0.05-0.18,0.08-0.26C7.98,8.74,8.25,8.04,8.36,7.3c0.07-0.5-0.14-1.02-0.53-1.22
			C7.42,5.87,6.87,5.96,6.5,6.32C6.31,6.5,6.17,6.71,6.07,6.95C5.82,7.61,5.83,8.27,6.03,8.93c0.06,0.2,0.08,0.39,0.03,0.6
			c-0.17,0.68-0.34,1.37-0.49,2.06c-0.24,1.11-0.64,2.2-0.59,3.37c0.02,0.37-0.02,0.39-0.35,0.23c-3.16-1.55-5.04-5.03-4.25-8.78
			c0.79-3.73,4.19-6.27,7.77-6.19c2.69,0.06,4.8,1.18,6.38,3.32c0.79,1.06,1.22,2.28,1.41,3.58c0,0.63,0,1.27,0,1.9
			c-0.01,0.06-0.03,0.12-0.04,0.18c-0.37,2.41-1.59,4.27-3.63,5.6C11.3,15.42,10.22,15.77,9.07,15.94z"/>
	</g>
</g>
</svg>
