<?xml version="1.0" encoding="utf-8"?>
<!-- Generator: Adobe Illustrator 24.0.2, SVG Export Plug-In . SVG Version: 6.00 Build 0)  -->
<svg version="1.1" id="Capa_1" xmlns="http://www.w3.org/2000/svg" xmlns:xlink="http://www.w3.org/1999/xlink" x="0px" y="0px"
	 viewBox="0 0 16 16" style="enable-background:new 0 0 16 16;" xml:space="preserve">
<g>
	<g>
		<path d="M8.15,15.26c-3.93-0.1-7.11-3.02-7.13-7.11C1,4.22,4.01,1.05,8.1,1.02C12.03,0.99,15.2,4,15.23,8.1
			C15.26,12.04,12.22,15.12,8.15,15.26z M8.4,7.13c0,0-0.01,0-0.01,0c0,0.81,0.03,1.63-0.01,2.44c-0.04,0.75-0.55,1.26-1.2,1.29
			c-0.58,0.03-1.12-0.39-1.27-1C5.74,9.19,6.17,8.56,6.97,8.37c0.26-0.06,0.47-0.07,0.49-0.43C7.5,7.33,7.25,7.16,6.54,7.34
			C5.41,7.62,4.63,8.8,4.8,9.96c0.17,1.16,1.27,2.06,2.43,1.99c1.19-0.07,2.17-1.04,2.22-2.22c0.03-0.71,0.01-1.42,0.01-2.12
			c0-0.86,0-0.86,0.82-0.53c0.17,0.07,0.35,0.13,0.53,0.17c0.23,0.06,0.55,0.21,0.62-0.15c0.06-0.32,0.19-0.76-0.31-0.88
			C10.27,6,9.74,5.49,9.54,4.64C9.43,4.21,9.08,4.29,8.77,4.3C8.41,4.3,8.4,4.56,8.4,4.82C8.4,5.59,8.4,6.36,8.4,7.13z"/>
	</g>
</g>
</svg>
