<?xml version="1.0" encoding="utf-8"?>
<!-- Generator: Adobe Illustrator 24.0.2, SVG Export Plug-In . SVG Version: 6.00 Build 0)  -->
<svg version="1.1" id="Capa_1" xmlns="http://www.w3.org/2000/svg" xmlns:xlink="http://www.w3.org/1999/xlink" x="0px" y="0px"
	 viewBox="0 0 16 16" style="enable-background:new 0 0 16 16;" xml:space="preserve">
<g>
	<g>
		<path d="M0.12,12.89c1.21-0.01,2.41-0.08,3.52-0.65c0.05-0.03,0.11-0.05,0.17-0.08c0.21-0.12,0.56-0.19,0.56-0.42
			c0-0.28-0.38-0.21-0.59-0.3c-0.73-0.3-1.29-0.78-1.69-1.46C1.76,9.41,1.81,9.31,2.48,9.3c0.1,0,0.2,0,0.46,0
			C1.83,8.78,1.1,8.09,0.81,7.02c-0.07-0.27-0.24-0.6-0.04-0.82C0.99,5.95,1.25,6.27,1.5,6.31c0.08,0.01,0.16,0.02,0.33,0.04
			C1.65,6.12,1.52,5.97,1.39,5.8C0.71,4.86,0.53,3.83,0.91,2.73c0.21-0.6,0.32-0.63,0.76-0.16c1.5,1.59,3.32,2.55,5.5,2.83
			c0.47,0.06,0.54-0.1,0.54-0.51c0.02-1.36,0.62-2.42,1.86-3.01c1.21-0.58,2.39-0.44,3.46,0.38c0.26,0.2,0.49,0.25,0.79,0.15
			c0.21-0.07,0.43-0.15,0.64-0.21c0.3-0.08,0.68-0.5,0.85-0.25c0.2,0.29-0.2,0.65-0.41,0.94c-0.1,0.15-0.24,0.28-0.39,0.46
			c0.47,0.13,0.83-0.29,1.29-0.18c-0.26,0.52-0.6,0.92-1.02,1.23c-0.36,0.27-0.5,0.58-0.5,1.04c-0.05,4.96-4.07,8.93-9.02,8.98
			c-1.86,0.02-3.55-0.46-5.13-1.4C0.12,12.97,0.12,12.93,0.12,12.89z"/>
	</g>
</g>
</svg>
