<?xml version="1.0" encoding="utf-8"?>
<!-- Generator: Adobe Illustrator 24.0.2, SVG Export Plug-In . SVG Version: 6.00 Build 0)  -->
<svg version="1.1" id="Capa_1" xmlns="http://www.w3.org/2000/svg" xmlns:xlink="http://www.w3.org/1999/xlink" x="0px" y="0px"
	 viewBox="0 0 30 30" style="enable-background:new 0 0 30 30;" xml:space="preserve">
<g>
	<g>
		<path d="M15.15,6.45c3.08,0,5.44,2.37,5.44,5.45c0,3.03-2.39,5.39-5.44,5.39c-3.08,0-5.44-2.37-5.44-5.45
			C9.71,8.81,12.09,6.45,15.15,6.45z M15.12,7.96c-2.17,0.04-3.96,1.85-3.9,3.95c0.06,2.15,1.8,3.86,3.92,3.87
			c2.14,0,3.95-1.8,3.93-3.92C19.05,9.71,17.24,7.92,15.12,7.96z"/>
		<path d="M24.6,24.88c-0.01,0.29-0.12,0.54-0.39,0.67c-0.31,0.14-0.62,0.12-0.87-0.13c-0.15-0.15-0.26-0.34-0.38-0.52
			c-1.7-2.53-4.04-4.04-7.12-4.24c-3.71-0.24-6.54,1.3-8.56,4.37c-0.12,0.18-0.21,0.38-0.41,0.48c-0.33,0.17-0.66,0.16-0.93-0.09
			c-0.34-0.32-0.31-0.69-0.09-1.07c0.8-1.39,1.89-2.53,3.21-3.43c5.07-3.45,12-1.99,15.25,3.19C24.46,24.36,24.62,24.58,24.6,24.88z
			"/>
	</g>
</g>
</svg>
